<?xml version="1.0" encoding="UTF-8" standalone="no"?>
<!DOCTYPE svg PUBLIC "-//W3C//DTD SVG 1.1//EN"
 "http://www.w3.org/Graphics/SVG/1.1/DTD/svg11.dtd">
<!-- Generated by graphviz version 2.42.3 (0)
 -->
<!-- Title: G Pages: 1 -->
<svg width="383pt" height="384pt"
 viewBox="0.00 0.00 382.59 384.00" xmlns="http://www.w3.org/2000/svg" xmlns:xlink="http://www.w3.org/1999/xlink">
<g id="graph0" class="graph" transform="scale(1 1) rotate(0) translate(4 380)">
<title>G</title>
<polygon fill="white" stroke="transparent" points="-4,4 -4,-380 378.59,-380 378.59,4 -4,4"/>
<g id="clust1" class="cluster">
<title>cluster_Global</title>
<path fill="none" stroke="gray" d="M171.59,-8C171.59,-8 354.59,-8 354.59,-8 360.59,-8 366.59,-14 366.59,-20 366.59,-20 366.59,-356 366.59,-356 366.59,-362 360.59,-368 354.59,-368 354.59,-368 171.59,-368 171.59,-368 165.59,-368 159.59,-362 159.59,-356 159.59,-356 159.59,-20 159.59,-20 159.59,-14 165.59,-8 171.59,-8"/>
<text text-anchor="middle" x="263.09" y="-355.2" font-family="Times,serif" font-size="11.00" fill="gray">Global</text>
</g>
<g id="clust2" class="cluster">
<title>cluster_\ABGEO</title>
<path fill="none" stroke="gray" d="M179.59,-16C179.59,-16 346.59,-16 346.59,-16 352.59,-16 358.59,-22 358.59,-28 358.59,-28 358.59,-328 358.59,-328 358.59,-334 352.59,-340 346.59,-340 346.59,-340 179.59,-340 179.59,-340 173.59,-340 167.59,-334 167.59,-328 167.59,-328 167.59,-28 167.59,-28 167.59,-22 173.59,-16 179.59,-16"/>
<text text-anchor="middle" x="263.09" y="-327.2" font-family="Times,serif" font-size="11.00" fill="gray">ABGEO</text>
</g>
<g id="clust3" class="cluster">
<title>cluster_\ABGEO\NBG</title>
<path fill="none" stroke="gray" d="M187.59,-24C187.59,-24 338.59,-24 338.59,-24 344.59,-24 350.59,-30 350.59,-36 350.59,-36 350.59,-300 350.59,-300 350.59,-306 344.59,-312 338.59,-312 338.59,-312 187.59,-312 187.59,-312 181.59,-312 175.59,-306 175.59,-300 175.59,-300 175.59,-36 175.59,-36 175.59,-30 181.59,-24 187.59,-24"/>
<text text-anchor="middle" x="263.09" y="-299.2" font-family="Times,serif" font-size="11.00" fill="gray">NBG</text>
</g>
<g id="clust4" class="cluster">
<title>cluster_\ABGEO\NBG\Model</title>
<path fill="none" stroke="gray" d="M237.59,-212C237.59,-212 288.59,-212 288.59,-212 294.59,-212 300.59,-218 300.59,-224 300.59,-224 300.59,-272 300.59,-272 300.59,-278 294.59,-284 288.59,-284 288.59,-284 237.59,-284 237.59,-284 231.59,-284 225.59,-278 225.59,-272 225.59,-272 225.59,-224 225.59,-224 225.59,-218 231.59,-212 237.59,-212"/>
<text text-anchor="middle" x="263.09" y="-271.2" font-family="Times,serif" font-size="11.00" fill="gray">Model</text>
</g>
<g id="clust5" class="cluster">
<title>cluster_\ABGEO\NBG\Exception</title>
<path fill="none" stroke="gray" d="M195.59,-132C195.59,-132 330.59,-132 330.59,-132 336.59,-132 342.59,-138 342.59,-144 342.59,-144 342.59,-192 342.59,-192 342.59,-198 336.59,-204 330.59,-204 330.59,-204 195.59,-204 195.59,-204 189.59,-204 183.59,-198 183.59,-192 183.59,-192 183.59,-144 183.59,-144 183.59,-138 189.59,-132 195.59,-132"/>
<text text-anchor="middle" x="263.09" y="-191.2" font-family="Times,serif" font-size="11.00" fill="gray">Exception</text>
</g>
<!-- \\ABGEO\\NBG\\Model\\Currency -->
<g id="node1" class="node">
<title>\\ABGEO\\NBG\\Model\\Currency</title>
<polygon fill="none" stroke="black" points="292.59,-256 233.59,-256 233.59,-220 292.59,-220 292.59,-256"/>
<text text-anchor="middle" x="263.09" y="-235.2" font-family="Courier,monospace" font-size="11.00">Currency</text>
</g>
<!-- \\ABGEO\\NBG\\Exception\\InvalidCurrencyException -->
<g id="node2" class="node">
<title>\\ABGEO\\NBG\\Exception\\InvalidCurrencyException</title>
<polygon fill="none" stroke="black" points="334.59,-176 191.59,-176 191.59,-140 334.59,-140 334.59,-176"/>
<text text-anchor="middle" x="263.09" y="-155.2" font-family="Courier,monospace" font-size="11.00">InvalidCurrencyException</text>
</g>
<!-- \\Exception -->
<g id="node5" class="node">
<title>\\Exception</title>
<ellipse fill="none" stroke="black" cx="59.79" cy="-158" rx="59.59" ry="18"/>
<text text-anchor="middle" x="59.79" y="-154.3" font-family="Times,serif" font-size="14.00" fill="gray">\Exception</text>
</g>
<!-- \\ABGEO\\NBG\\Exception\\InvalidCurrencyException&#45;&gt;\\Exception -->
<g id="edge1" class="edge">
<title>\\ABGEO\\NBG\\Exception\\InvalidCurrencyException&#45;&gt;\\Exception</title>
<path fill="none" stroke="black" d="M191.4,-158C171.43,-158 149.73,-158 129.86,-158"/>
<polygon fill="none" stroke="black" points="129.66,-154.5 119.66,-158 129.66,-161.5 129.66,-154.5"/>
</g>
<!-- \\ABGEO\\NBG\\Exporter -->
<g id="node3" class="node">
<title>\\ABGEO\\NBG\\Exporter</title>
<polygon fill="none" stroke="black" points="292.59,-122 233.59,-122 233.59,-86 292.59,-86 292.59,-122"/>
<text text-anchor="middle" x="263.09" y="-101.2" font-family="Courier,monospace" font-size="11.00">Exporter</text>
</g>
<!-- \\ABGEO\\NBG\\Currency -->
<g id="node4" class="node">
<title>\\ABGEO\\NBG\\Currency</title>
<polygon fill="none" stroke="black" points="292.59,-68 233.59,-68 233.59,-32 292.59,-32 292.59,-68"/>
<text text-anchor="middle" x="263.09" y="-47.2" font-family="Courier,monospace" font-size="11.00">Currency</text>
</g>
</g>
</svg>
