<?xml version="1.0" encoding="UTF-8" standalone="no"?>
<!DOCTYPE svg PUBLIC "-//W3C//DTD SVG 1.1//EN"
 "http://www.w3.org/Graphics/SVG/1.1/DTD/svg11.dtd">
<!-- Generated by graphviz version 2.42.3 (0)
 -->
<!-- Title: G Pages: 1 -->
<svg width="383pt" height="330pt"
 viewBox="0.00 0.00 382.59 330.00" xmlns="http://www.w3.org/2000/svg" xmlns:xlink="http://www.w3.org/1999/xlink">
<g id="graph0" class="graph" transform="scale(1 1) rotate(0) translate(4 326)">
<title>G</title>
<polygon fill="white" stroke="transparent" points="-4,4 -4,-326 378.59,-326 378.59,4 -4,4"/>
<g id="clust1" class="cluster">
<title>cluster_Global</title>
<path fill="none" stroke="gray" d="M171.59,-8C171.59,-8 354.59,-8 354.59,-8 360.59,-8 366.59,-14 366.59,-20 366.59,-20 366.59,-302 366.59,-302 366.59,-308 360.59,-314 354.59,-314 354.59,-314 171.59,-314 171.59,-314 165.59,-314 159.59,-308 159.59,-302 159.59,-302 159.59,-20 159.59,-20 159.59,-14 165.59,-8 171.59,-8"/>
<text text-anchor="middle" x="263.09" y="-301.2" font-family="Times,serif" font-size="11.00" fill="gray">Global</text>
</g>
<g id="clust2" class="cluster">
<title>cluster_\ABGEO</title>
<path fill="none" stroke="gray" d="M179.59,-16C179.59,-16 346.59,-16 346.59,-16 352.59,-16 358.59,-22 358.59,-28 358.59,-28 358.59,-274 358.59,-274 358.59,-280 352.59,-286 346.59,-286 346.59,-286 179.59,-286 179.59,-286 173.59,-286 167.59,-280 167.59,-274 167.59,-274 167.59,-28 167.59,-28 167.59,-22 173.59,-16 179.59,-16"/>
<text text-anchor="middle" x="263.09" y="-273.2" font-family="Times,serif" font-size="11.00" fill="gray">ABGEO</text>
</g>
<g id="clust3" class="cluster">
<title>cluster_\ABGEO\NBG</title>
<path fill="none" stroke="gray" d="M187.59,-24C187.59,-24 338.59,-24 338.59,-24 344.59,-24 350.59,-30 350.59,-36 350.59,-36 350.59,-246 350.59,-246 350.59,-252 344.59,-258 338.59,-258 338.59,-258 187.59,-258 187.59,-258 181.59,-258 175.59,-252 175.59,-246 175.59,-246 175.59,-36 175.59,-36 175.59,-30 181.59,-24 187.59,-24"/>
<text text-anchor="middle" x="263.09" y="-245.2" font-family="Times,serif" font-size="11.00" fill="gray">NBG</text>
</g>
<g id="clust4" class="cluster">
<title>cluster_\ABGEO\NBG\Model</title>
<path fill="none" stroke="gray" d="M237.59,-158C237.59,-158 288.59,-158 288.59,-158 294.59,-158 300.59,-164 300.59,-170 300.59,-170 300.59,-218 300.59,-218 300.59,-224 294.59,-230 288.59,-230 288.59,-230 237.59,-230 237.59,-230 231.59,-230 225.59,-224 225.59,-218 225.59,-218 225.59,-170 225.59,-170 225.59,-164 231.59,-158 237.59,-158"/>
<text text-anchor="middle" x="263.09" y="-217.2" font-family="Times,serif" font-size="11.00" fill="gray">Model</text>
</g>
<g id="clust5" class="cluster">
<title>cluster_\ABGEO\NBG\Exception</title>
<path fill="none" stroke="gray" d="M195.59,-78C195.59,-78 330.59,-78 330.59,-78 336.59,-78 342.59,-84 342.59,-90 342.59,-90 342.59,-138 342.59,-138 342.59,-144 336.59,-150 330.59,-150 330.59,-150 195.59,-150 195.59,-150 189.59,-150 183.59,-144 183.59,-138 183.59,-138 183.59,-90 183.59,-90 183.59,-84 189.59,-78 195.59,-78"/>
<text text-anchor="middle" x="263.09" y="-137.2" font-family="Times,serif" font-size="11.00" fill="gray">Exception</text>
</g>
<!-- \\ABGEO\\NBG\\Model\\Currency -->
<g id="node1" class="node">
<title>\\ABGEO\\NBG\\Model\\Currency</title>
<polygon fill="none" stroke="black" points="292.59,-202 233.59,-202 233.59,-166 292.59,-166 292.59,-202"/>
<text text-anchor="middle" x="263.09" y="-181.2" font-family="Courier,monospace" font-size="11.00">Currency</text>
</g>
<!-- \\ABGEO\\NBG\\Exception\\InvalidCurrencyException -->
<g id="node2" class="node">
<title>\\ABGEO\\NBG\\Exception\\InvalidCurrencyException</title>
<polygon fill="none" stroke="black" points="334.59,-122 191.59,-122 191.59,-86 334.59,-86 334.59,-122"/>
<text text-anchor="middle" x="263.09" y="-101.2" font-family="Courier,monospace" font-size="11.00">InvalidCurrencyException</text>
</g>
<!-- \\Exception -->
<g id="node4" class="node">
<title>\\Exception</title>
<ellipse fill="none" stroke="black" cx="59.79" cy="-104" rx="59.59" ry="18"/>
<text text-anchor="middle" x="59.79" y="-100.3" font-family="Times,serif" font-size="14.00" fill="gray">\Exception</text>
</g>
<!-- \\ABGEO\\NBG\\Exception\\InvalidCurrencyException&#45;&gt;\\Exception -->
<g id="edge1" class="edge">
<title>\\ABGEO\\NBG\\Exception\\InvalidCurrencyException&#45;&gt;\\Exception</title>
<path fill="none" stroke="black" d="M191.4,-104C171.43,-104 149.73,-104 129.86,-104"/>
<polygon fill="none" stroke="black" points="129.66,-100.5 119.66,-104 129.66,-107.5 129.66,-100.5"/>
</g>
<!-- \\ABGEO\\NBG\\Currency -->
<g id="node3" class="node">
<title>\\ABGEO\\NBG\\Currency</title>
<polygon fill="none" stroke="black" points="292.59,-68 233.59,-68 233.59,-32 292.59,-32 292.59,-68"/>
<text text-anchor="middle" x="263.09" y="-47.2" font-family="Courier,monospace" font-size="11.00">Currency</text>
</g>
</g>
</svg>
